<svg xmlns="http://www.w3.org/2000/svg" data-name="Layer 1" viewBox="0 0 168 168"><circle cx="2" cy="147.5" r="2" fill="#2d4356"/><path fill="#2d4356" d="M11,145.5H8a2,2,0,0,0,0,4h3a2,2,0,0,0,0-4Z"/><path fill="#0bceb2" d="M118.15387 153.5h-8.30774a2.00641 2.00641 0 0 0 0 4h8.30774a2.00641 2.00641 0 0 0 0-4zM58.15387 153.5H49.84613a2.00641 2.00641 0 0 0 0 4h8.30774a2.00641 2.00641 0 0 0 0-4zM104 153.5H64a2 2 0 0 0 0 4H79.94v2H72a2 2 0 0 0 0 4H97a2 2 0 0 0 0-4H88.06v-2H104a2 2 0 0 0 0-4zM133.6709 81.6153a1.99966 1.99966 0 0 0-2.77-.57239L87.84473 109.40332a6.0883 6.0883 0 0 1-6.84668.01569L37.09277 80.7511a2.0017 2.0017 0 0 0-2.18555 3.35419L78.813 112.77222a10.10439 10.10439 0 0 0 11.23047-.0235l43.05566-28.36041A2.00368 2.00368 0 0 0 133.6709 81.6153zM60.95166 111.75647l-26 16.01715a2.00145 2.00145 0 1 0 2.09668 3.40985l26-16.01709a2.00147 2.00147 0 0 0-2.09668-3.40991zM133.04834 127.77362l-26-16.01715a2.00147 2.00147 0 0 0-2.09668 3.40991l26 16.01709a2.00145 2.00145 0 0 0 2.09668-3.40985z"/><path fill="#2d4356" d="M54.56177,84.60455a8.06628,8.06628,0,0,0,7.60229,5.3847,7.93646,7.93646,0,0,0,2.59644-.437l58.95276-20.373a8.00066,8.00066,0,0,0,4.92548-10.17438l-11.2005-32.12018A8.06617,8.06617,0,0,0,109.83594,21.5a7.93967,7.93967,0,0,0-2.59644.437L48.28674,42.31a8.00071,8.00071,0,0,0-4.92548,10.17438ZM47.32007,48.123A3.94374,3.94374,0,0,1,49.592,46.095l58.95276-20.37292a3.94471,3.94471,0,0,1,1.29156-.21777,4.04644,4.04644,0,0,1,3.82538,2.70013l11.20056,32.12018a3.99558,3.99558,0,0,1-2.45422,5.06964L63.45526,85.76721a3.94578,3.94578,0,0,1-1.2912.21777,4.04684,4.04684,0,0,1-3.82574-2.7002L47.13776,51.16467A3.95,3.95,0,0,1,47.32007,48.123Z"/><path fill="#0bceb2" d="M56.40186 51.65649l25.90479 6.592a8.45228 8.45228 0 0 0 8.8252-3.08289L106.99561 34.2951a2.00082 2.00082 0 1 0-3.18359-2.42444L87.94824 52.74115A4.46343 4.46343 0 0 1 83.292 54.36737l-25.90479-6.592a2.00212 2.00212 0 0 0-.98535 3.8811zM96.56738 55.88464A2.00258 2.00258 0 0 0 97.98486 58.335l15 4.00427a2.0021 2.0021 0 0 0 1.03027-3.86938l-15-4.00427A2.00133 2.00133 0 0 0 96.56738 55.88464zM75.46338 62.12616l-10 12.01288a2.001 2.001 0 1 0 3.07324 2.56329l10-12.01288a2.001 2.001 0 1 0-3.07324-2.56329z"/><path fill="#2d4356" d="M160,145.5h-3a2,2,0,0,0,0,4h3a2,2,0,0,0,0-4Z"/><circle cx="166" cy="147.5" r="2" fill="#2d4356"/><path fill="#2d4356" d="M150.72131 145.5h-3.81183A7.93654 7.93654 0 0 0 148 141.49139V75.42065a8.02778 8.02778 0 0 0-8-8.00854h-8.42273a11.89242 11.89242 0 0 1-3.55133 4.00427H140a4.00667 4.00667 0 0 1 4 4.00427v66.07074a4.00672 4.00672 0 0 1-4 4.00433H28a4.00672 4.00672 0 0 1-4-4.00433V75.42065a4.00667 4.00667 0 0 1 4-4.00427H45.72638l-1.3963-4.00427H28a8.02778 8.02778 0 0 0-8 8.00854v66.07074A7.93654 7.93654 0 0 0 21.09052 145.5H17.27869a2.017 2.017 0 1 0 0 4H150.72131a2.017 2.017 0 1 0 0-4zM32.30471 11.5a3 3 0 1 0-3-3A3.00344 3.00344 0 0 0 32.30471 11.5zm0-4.5a1.5 1.5 0 1 1-1.5 1.5A1.50148 1.50148 0 0 1 32.30471 7zM149.30471 59.5a2 2 0 1 0 2 2A2.00229 2.00229 0 0 0 149.30471 59.5zm0 3a1 1 0 1 1 1-1A1.001 1.001 0 0 1 149.30471 62.5zM132.30471 30.5a2 2 0 1 0 2 2A2.00229 2.00229 0 0 0 132.30471 30.5zm0 3a1 1 0 1 1 1-1A1.001 1.001 0 0 1 132.30471 33.5zM152.30471 4.5a2 2 0 1 0 2 2A2.00229 2.00229 0 0 0 152.30471 4.5zm0 3a1 1 0 1 1 1-1A1.001 1.001 0 0 1 152.30471 7.5zM24.30471 51.5a2 2 0 1 0-2 2A2.00229 2.00229 0 0 0 24.30471 51.5zm-3 0a1 1 0 1 1 1 1A1.001 1.001 0 0 1 21.30471 51.5z"/><polygon fill="#0bceb2" points="4.888 25.511 6.375 23.556 5.436 23.024 4.481 25.214 4.45 25.214 3.48 23.039 2.525 23.587 3.996 25.496 3.996 25.527 1.695 25.23 1.695 26.294 4.011 25.997 4.011 26.028 2.525 27.936 3.416 28.5 4.434 26.294 4.465 26.294 5.404 28.484 6.39 27.921 4.888 26.043 4.888 26.012 7.25 26.294 7.25 25.23 4.888 25.542 4.888 25.511"/><polygon fill="#0bceb2" points="58.081 25.567 57.225 26.666 57.739 26.99 58.325 25.72 58.342 25.72 58.883 26.981 59.451 26.657 58.586 25.575 58.586 25.557 59.946 25.72 59.946 25.107 58.586 25.287 58.586 25.269 59.442 24.143 58.902 23.837 58.352 25.098 58.334 25.098 57.775 23.845 57.225 24.161 58.072 25.26 58.072 25.278 56.747 25.107 56.747 25.72 58.081 25.549 58.081 25.567"/><polygon fill="#0bceb2" points="164.305 41.213 164.305 40.17 161.988 40.477 161.988 40.446 163.446 38.528 162.525 38.006 161.589 40.154 161.558 40.154 160.607 38.021 159.67 38.559 161.113 40.431 161.113 40.462 158.856 40.17 158.856 41.213 161.128 40.922 161.128 40.953 159.67 42.825 160.545 43.378 161.543 41.213 161.573 41.213 162.494 43.362 163.461 42.81 161.988 40.968 161.988 40.937 164.305 41.213"/><polygon fill="#0bceb2" points="86.748 10.086 88.006 8.431 87.211 7.981 86.404 9.834 86.377 9.834 85.557 7.994 84.748 8.458 85.993 10.073 85.993 10.099 84.047 9.848 84.047 10.748 86.006 10.496 86.006 10.523 84.748 12.138 85.503 12.615 86.364 10.748 86.39 10.748 87.185 12.601 88.019 12.125 86.748 10.536 86.748 10.509 88.746 10.748 88.746 9.848 86.748 10.112 86.748 10.086"/></svg>