<svg id="SvgjsSvg1031" width="288" height="288" xmlns="http://www.w3.org/2000/svg" version="1.1" xmlns:xlink="http://www.w3.org/1999/xlink" xmlns:svgjs="http://svgjs.com/svgjs"><defs id="SvgjsDefs1032"></defs><g id="SvgjsG1033" transform="matrix(0.9167,0,0,0.9167,11.847357863903056,11.995200000000011)"><svg xmlns="http://www.w3.org/2000/svg" width="288" height="288" viewBox="0 0 24 24"><path d="M19.6 23.5H4.2c-2.1 0-3.8-1.7-3.8-3.8V4.3C.4 2.2 2.1.5 4.2.5h15.3c2.1 0 3.8 1.7 3.8 3.8v15.3c.1 2.2-1.6 3.9-3.7 3.9zM4.2 1.5c-1.6 0-2.8 1.3-2.8 2.8v15.3c0 1.6 1.3 2.8 2.8 2.8h15.3c1.6 0 2.8-1.3 2.8-2.8V4.3c0-1.6-1.3-2.8-2.8-2.8H4.2z" fill="#ffffff" class="color000 svgShape"></path><path d="M7.8 17.9c-.3 0-.5-.2-.5-.5V6.6c0-.2.2-.4.4-.5.2-.1.4 0 .6.2l4.1 6.9c.1.2.1.5-.2.7-.2.1-.5.1-.7-.2L8.3 8.4v8.9c0 .4-.3.6-.5.6z" fill="#ffffff" class="color000 svgShape"></path><path d="M9.3 17.9h-3c-.3 0-.5-.2-.5-.5s.2-.5.5-.5h3c.3 0 .5.2.5.5s-.2.5-.5.5zM7.8 7.1H6.3c-.3 0-.5-.2-.5-.5s.2-.5.5-.5h1.5c.3 0 .5.2.5.5s-.3.5-.5.5zM16 17.9c-.3 0-.5-.2-.5-.5v-9l-3.2 5.3c-.1.2-.4.3-.7.2-.2-.1-.3-.4-.2-.7l4.1-6.9c.1-.2.3-.3.6-.2.2.1.4.3.4.5v10.8c0 .3-.2.5-.5.5z" fill="#ffffff" class="color000 svgShape"></path><path d="M17.5 17.9h-3c-.3 0-.5-.2-.5-.5s.2-.5.5-.5h3c.3 0 .5.2.5.5s-.2.5-.5.5zM17.5 7.1H16c-.3 0-.5-.2-.5-.5s.2-.5.5-.5h1.5c.3 0 .5.2.5.5s-.2.5-.5.5z" fill="#ffffff" class="color000 svgShape"></path></svg></g></svg>